<mxfile host="app.diagrams.net" modified="2023-01-29T08:19:38.564Z" agent="5.0 (Windows NT 10.0; Win64; x64) AppleWebKit/537.36 (KHTML, like Gecko) Chrome/109.0.0.0 Safari/537.36" etag="XnGO6gim-XnbYS-8ThQF" version="20.8.13" type="github">
  <diagram name="Page-1" id="mSlx47nGNL5RWJyyoE6L">
    <mxGraphModel dx="1050" dy="623" grid="1" gridSize="10" guides="1" tooltips="1" connect="1" arrows="1" fold="1" page="1" pageScale="1" pageWidth="850" pageHeight="1100" math="0" shadow="0">
      <root>
        <mxCell id="0" />
        <mxCell id="1" parent="0" />
        <mxCell id="Y_9wVmNzoXYJvqYZAr2C-1" value="PY FILE" style="rounded=0;whiteSpace=wrap;html=1;" vertex="1" parent="1">
          <mxGeometry x="30" y="70" width="120" height="60" as="geometry" />
        </mxCell>
        <mxCell id="Y_9wVmNzoXYJvqYZAr2C-2" value="DOCKER" style="ellipse;whiteSpace=wrap;html=1;" vertex="1" parent="1">
          <mxGeometry x="210" y="60" width="120" height="80" as="geometry" />
        </mxCell>
        <mxCell id="Y_9wVmNzoXYJvqYZAr2C-3" value="GITHUB ACTIONS" style="rounded=1;whiteSpace=wrap;html=1;" vertex="1" parent="1">
          <mxGeometry x="210" y="190" width="120" height="60" as="geometry" />
        </mxCell>
        <mxCell id="Y_9wVmNzoXYJvqYZAr2C-4" value="DOCKER REGISTRY" style="ellipse;whiteSpace=wrap;html=1;aspect=fixed;" vertex="1" parent="1">
          <mxGeometry x="220" y="290" width="100" height="100" as="geometry" />
        </mxCell>
        <mxCell id="Y_9wVmNzoXYJvqYZAr2C-5" value="DEPLOY TO K8&#39;S" style="whiteSpace=wrap;html=1;aspect=fixed;" vertex="1" parent="1">
          <mxGeometry x="420" y="180" width="110" height="110" as="geometry" />
        </mxCell>
        <mxCell id="Y_9wVmNzoXYJvqYZAr2C-6" value="END USER" style="text;html=1;strokeColor=none;fillColor=none;align=center;verticalAlign=middle;whiteSpace=wrap;rounded=0;" vertex="1" parent="1">
          <mxGeometry x="580" y="220" width="60" height="30" as="geometry" />
        </mxCell>
        <mxCell id="Y_9wVmNzoXYJvqYZAr2C-8" value="" style="endArrow=classic;startArrow=classic;html=1;rounded=0;" edge="1" parent="1">
          <mxGeometry width="50" height="50" relative="1" as="geometry">
            <mxPoint x="150" y="99.5" as="sourcePoint" />
            <mxPoint x="200" y="99.5" as="targetPoint" />
          </mxGeometry>
        </mxCell>
        <mxCell id="Y_9wVmNzoXYJvqYZAr2C-9" value="" style="endArrow=classic;startArrow=classic;html=1;rounded=0;" edge="1" parent="1">
          <mxGeometry width="50" height="50" relative="1" as="geometry">
            <mxPoint x="270" y="180" as="sourcePoint" />
            <mxPoint x="270" y="150" as="targetPoint" />
          </mxGeometry>
        </mxCell>
        <mxCell id="Y_9wVmNzoXYJvqYZAr2C-10" value="" style="endArrow=classic;html=1;rounded=0;" edge="1" parent="1">
          <mxGeometry width="50" height="50" relative="1" as="geometry">
            <mxPoint x="269.5" y="250" as="sourcePoint" />
            <mxPoint x="269.5" y="280" as="targetPoint" />
          </mxGeometry>
        </mxCell>
        <mxCell id="Y_9wVmNzoXYJvqYZAr2C-11" value="" style="curved=1;endArrow=classic;html=1;rounded=0;" edge="1" parent="1">
          <mxGeometry width="50" height="50" relative="1" as="geometry">
            <mxPoint x="330" y="350" as="sourcePoint" />
            <mxPoint x="410" y="240" as="targetPoint" />
            <Array as="points">
              <mxPoint x="380" y="350" />
              <mxPoint x="330" y="300" />
            </Array>
          </mxGeometry>
        </mxCell>
        <mxCell id="Y_9wVmNzoXYJvqYZAr2C-13" value="" style="endArrow=none;dashed=1;html=1;dashPattern=1 3;strokeWidth=2;rounded=0;" edge="1" parent="1">
          <mxGeometry width="50" height="50" relative="1" as="geometry">
            <mxPoint x="540" y="240" as="sourcePoint" />
            <mxPoint x="580" y="240" as="targetPoint" />
          </mxGeometry>
        </mxCell>
      </root>
    </mxGraphModel>
  </diagram>
</mxfile>
